<svg width="272" height="146" viewBox="0 0 272 146" fill="none" xmlns="http://www.w3.org/2000/svg">
<path d="M73.1856 61.5707C74.2328 63.6651 74.7913 65.4453 74.8611 66.9114C74.9309 68.3775 74.4771 69.6691 73.4997 70.7861C72.5223 71.9031 70.9515 73.0202 68.7873 74.1372C65.4362 75.7429 62.8531 76.2316 61.0379 75.6033C59.2228 75.0448 57.5123 73.0551 55.9066 69.6342L38.104 33.1913L20.5109 69.7389C18.8354 73.0202 17.09 74.94 15.2749 75.4985C13.4597 76.1269 10.9115 75.6382 7.63024 74.0325C5.46601 72.9852 3.86029 71.9031 2.81308 70.7861C1.83568 69.6691 1.38189 68.3775 1.45171 66.9114C1.52152 65.4453 2.08003 63.6651 3.12724 61.5707L29.4122 7.11575C30.25 5.44021 31.4717 4.11374 33.0774 3.13635C34.753 2.08914 36.4634 1.56553 38.2088 1.56553C39.4654 1.56553 40.6174 1.80988 41.6646 2.29858C42.7816 2.71747 43.7939 3.34579 44.7015 4.18356C45.6091 5.02133 46.3421 6.03363 46.9006 7.22047L73.1856 61.5707ZM21.5581 59.6857L29.5169 43.3492H46.7959L54.7547 59.6857H21.5581ZM88.573 74.7655C85.4314 74.7655 83.1973 74.3117 81.8709 73.4041C80.5444 72.4267 79.7415 71.205 79.4623 69.7389C79.183 68.203 79.0434 66.6671 79.0434 65.1312V11.0951C79.0434 9.55924 79.183 8.05824 79.4623 6.59214C79.7415 5.12605 80.5444 3.93921 81.8709 3.03163C83.1973 2.05423 85.4663 1.56553 88.6777 1.56553H109.727C112.38 1.56553 115.242 2.12405 118.314 3.24107C121.386 4.28828 124.283 5.92891 127.006 8.16296C129.728 10.397 131.962 13.1896 133.708 16.5406C135.453 19.8917 136.326 23.8711 136.326 28.4788C136.326 31.6903 135.837 34.6923 134.86 37.4848C133.952 40.2774 132.556 42.8256 130.671 45.1295C128.856 47.3635 126.622 49.3532 123.969 51.0986C121.386 52.7741 118.418 54.1006 115.067 55.078H98.2073V65.2359C98.2073 66.7718 98.0677 68.2728 97.7885 69.7389C97.5092 71.205 96.7063 72.4267 95.3799 73.4041C94.0534 74.3117 91.7845 74.7655 88.573 74.7655ZM132.451 72.2522C129.309 74.6259 126.831 75.5684 125.016 75.0797C123.201 74.6608 121.246 73.0551 119.152 70.2625L99.8829 44.0823L121.665 41.3595L134.65 58.8479C136.047 60.8725 136.919 62.583 137.268 63.9792C137.687 65.3755 137.513 66.702 136.745 67.9586C135.977 69.2153 134.546 70.6465 132.451 72.2522ZM98.2073 36.0187H109.727C110.355 36.0187 111.088 35.914 111.926 35.7046C112.833 35.4253 113.671 35.0064 114.439 34.4479C115.207 33.8196 115.835 33.0167 116.324 32.0393C116.883 31.0619 117.162 29.8402 117.162 28.3741C117.162 26.908 116.813 25.6165 116.115 24.4994C115.416 23.3126 114.474 22.405 113.287 21.7767C112.17 21.0785 110.913 20.7295 109.517 20.7295H98.2073V36.0187ZM176.931 75.9174C174.209 75.9174 171.172 75.4636 167.821 74.5561C164.47 73.7183 161.084 72.3569 157.663 70.4719C154.312 68.587 151.205 66.1435 148.343 63.1415C145.55 60.1395 143.281 56.5441 141.536 52.3552C139.86 48.1664 139.022 43.3143 139.022 37.799C139.022 32.4931 139.86 27.8156 141.536 23.7664C143.281 19.7172 145.55 16.2265 148.343 13.2943C151.135 10.3621 154.207 7.98842 157.558 6.17326C160.979 4.35809 164.4 3.03163 167.821 2.19386C171.242 1.28628 174.383 0.83249 177.246 0.83249C180.806 0.83249 183.948 1.28628 186.67 2.19386C189.393 3.03163 191.592 3.93921 193.268 4.91661C195.013 5.82419 196.095 6.41761 196.514 6.69686C197.91 7.60445 199.202 8.61675 200.389 9.73377C201.646 10.781 202.274 12.2122 202.274 14.0273C202.274 14.9349 202.064 15.8774 201.646 16.8548C201.296 17.8322 200.738 18.8445 199.97 19.8917C198.574 21.8465 197.247 23.2777 195.991 24.1853C194.804 25.0929 193.617 25.5466 192.43 25.5466C191.522 25.5466 190.65 25.3372 189.812 24.9183C188.974 24.4994 187.962 23.906 186.775 23.1381C186.286 22.789 185.658 22.405 184.89 21.9861C184.122 21.4974 183.075 21.0785 181.749 20.7295C180.422 20.3106 178.677 20.1012 176.512 20.1012C174.697 20.1012 172.708 20.4502 170.543 21.1484C168.449 21.7767 166.459 22.8239 164.574 24.29C162.689 25.6863 161.153 27.5712 159.967 29.9449C158.78 32.2488 158.186 35.0413 158.186 38.3226C158.186 41.6737 158.78 44.5011 159.967 46.805C161.223 49.1089 162.794 50.9938 164.679 52.4599C166.564 53.8562 168.554 54.9034 170.648 55.6016C172.812 56.2299 174.767 56.5441 176.512 56.5441C178.328 56.5441 179.864 56.4044 181.12 56.1252C182.377 55.7761 183.494 55.3223 184.471 54.7638C185.518 54.2053 186.461 53.6468 187.299 53.0883C188.067 52.5297 188.904 52.041 189.812 51.6222C190.72 51.2033 191.627 50.9938 192.535 50.9938C193.722 50.9938 194.908 51.4825 196.095 52.4599C197.282 53.4373 198.539 54.9383 199.865 56.9629C200.633 58.1498 201.192 59.2668 201.541 60.314C201.96 61.2914 202.169 62.199 202.169 63.0368C202.169 64.7821 201.541 66.1784 200.284 67.2256C199.097 68.2728 197.806 69.2153 196.409 70.0531C195.921 70.3323 194.874 70.9606 193.268 71.938C191.662 72.9154 189.498 73.823 186.775 74.6608C184.052 75.4985 180.771 75.9174 176.931 75.9174ZM259.123 74.7655C255.981 74.7655 253.747 74.3117 252.42 73.4041C251.094 72.4267 250.291 71.205 250.012 69.7389C249.733 68.203 249.593 66.6671 249.593 65.1312V11.0951C249.593 9.55924 249.733 8.05824 250.012 6.59214C250.291 5.12605 251.094 3.93921 252.42 3.03163C253.747 2.05423 256.016 1.56553 259.227 1.56553C262.439 1.56553 264.673 2.05423 265.929 3.03163C267.256 3.93921 268.059 5.12605 268.338 6.59214C268.617 8.05824 268.757 9.59414 268.757 11.1999V65.2359C268.757 66.7718 268.617 68.2728 268.338 69.7389C268.059 71.205 267.256 72.4267 265.929 73.4041C264.603 74.3117 262.334 74.7655 259.123 74.7655ZM216.082 74.7655C212.941 74.7655 210.707 74.3117 209.38 73.4041C208.054 72.4267 207.251 71.205 206.972 69.7389C206.692 68.203 206.553 66.6671 206.553 65.1312V11.0951C206.553 9.55924 206.692 8.05824 206.972 6.59214C207.251 5.12605 208.054 3.93921 209.38 3.03163C210.707 2.05423 212.976 1.56553 216.187 1.56553C219.398 1.56553 221.632 2.05423 222.889 3.03163C224.216 3.93921 225.018 5.12605 225.298 6.59214C225.577 8.05824 225.717 9.59414 225.717 11.1999V65.2359C225.717 66.7718 225.577 68.2728 225.298 69.7389C225.018 71.205 224.216 72.4267 222.889 73.4041C221.563 74.3117 219.294 74.7655 216.082 74.7655ZM224.041 46.3861V30.0496H251.269V46.3861H224.041Z" fill="#FF731D"/>
<path d="M23.3431 144.736C19.9794 144.736 17.1121 144.322 14.741 143.495C12.4251 142.668 10.5227 141.703 9.03388 140.6C7.54506 139.442 6.41467 138.394 5.64269 137.457C4.87071 136.52 4.40201 135.941 4.23658 135.72C3.13376 134.341 2.44449 133.101 2.16878 131.998C1.94822 130.895 2.11364 129.792 2.66505 128.689C3.27161 127.587 4.26415 126.374 5.64269 125.05C6.91094 123.837 8.15162 123.175 9.36473 123.065C10.5778 122.9 11.7634 123.148 12.9213 123.809C14.1345 124.471 15.2924 125.436 16.3953 126.704C17.7186 128.193 18.849 129.213 19.7864 129.765C20.7238 130.261 21.7991 130.509 23.0122 130.509C24.501 130.509 25.7141 130.344 26.6515 130.013C27.5889 129.627 28.2782 129.075 28.7193 128.359C29.1605 127.587 29.381 126.622 29.381 125.464C29.381 124.526 28.9123 123.809 27.9749 123.313C27.0375 122.762 25.7969 122.293 24.2529 121.907C22.7641 121.521 21.0823 121.108 19.2075 120.666C17.3327 120.17 15.4854 119.536 13.6658 118.764C12.5629 118.323 11.4877 117.771 10.44 117.11C9.3923 116.448 8.39975 115.704 7.46235 114.877C6.58009 113.994 5.80811 112.974 5.14641 111.816C4.48472 110.603 3.96088 109.252 3.57489 107.763C3.24404 106.274 3.07861 104.593 3.07861 102.718C3.07861 99.3543 3.90573 96.349 5.55997 93.7023C7.26936 91.0555 9.58529 88.9601 12.5078 87.4161C15.4854 85.8722 18.849 85.1002 22.5987 85.1002C25.3006 85.1002 27.6165 85.3208 29.5465 85.7619C31.4764 86.203 33.0479 86.7269 34.2611 87.3334C35.5293 87.94 36.4943 88.519 37.156 89.0704C37.8177 89.5667 38.2312 89.8975 38.3967 90.0629C40.2163 91.7172 41.2089 93.1508 41.3743 94.364C41.5397 95.5219 40.878 97.2037 39.3892 99.4094C37.735 101.78 36.1083 103.131 34.5092 103.462C32.9101 103.738 31.0629 103.214 28.9675 101.891C28.5264 101.56 28.0852 101.201 27.6441 100.815C27.203 100.374 26.5964 100.016 25.8244 99.7402C25.1076 99.4094 24.0048 99.244 22.5159 99.244C21.9645 99.244 21.4131 99.3543 20.8617 99.5748C20.3103 99.7402 19.8416 99.9884 19.4556 100.319C19.0696 100.595 18.7388 100.953 18.4631 101.394C18.2425 101.836 18.1322 102.304 18.1322 102.801C18.1322 103.959 18.5733 104.868 19.4556 105.53C20.3379 106.137 21.4958 106.605 22.9295 106.936C24.4183 107.267 26.045 107.598 27.8095 107.929C29.574 108.26 31.3661 108.701 33.1858 109.252C34.6746 109.748 36.1083 110.383 37.4868 111.155C38.8654 111.926 40.0785 112.919 41.1262 114.132C42.1738 115.345 43.001 116.862 43.6075 118.681C44.2692 120.446 44.6001 122.624 44.6001 125.216C44.6001 128.8 43.9108 131.86 42.5323 134.397C41.1537 136.878 39.3616 138.891 37.156 140.435C35.0055 141.923 32.6895 142.999 30.2082 143.66C27.7819 144.377 25.4936 144.736 23.3431 144.736ZM55.5174 143.826C53.0912 143.826 51.3542 143.467 50.3065 142.751C49.2589 142.034 48.6247 141.096 48.4042 139.938C48.1836 138.78 48.0733 137.54 48.0733 136.216V93.5368C48.0733 92.3237 48.1836 91.1658 48.4042 90.0629C48.6247 88.905 49.2589 87.9676 50.3065 87.2507C51.3542 86.4787 53.1463 86.0928 55.6828 86.0928C57.3922 86.0928 58.6329 86.203 59.4049 86.4236C60.232 86.6442 60.811 86.9199 61.1418 87.2507C61.5278 87.5816 61.9138 87.9676 62.2998 88.4087L79.4212 110.41H78.9249L95.9636 88.4914C96.515 87.8848 97.0113 87.4161 97.4524 87.0853C97.9487 86.7545 98.5828 86.5063 99.3548 86.3409C100.182 86.1755 101.34 86.0928 102.829 86.0928C105.31 86.0928 107.075 86.4787 108.122 87.2507C109.17 87.9676 109.804 88.905 110.025 90.0629C110.245 91.2209 110.355 92.434 110.355 93.7023V136.382C110.355 137.595 110.245 138.78 110.025 139.938C109.804 141.096 109.17 142.034 108.122 142.751C107.075 143.467 105.282 143.826 102.746 143.826C100.265 143.826 98.5001 143.467 97.4524 142.751C96.4047 141.979 95.7706 141.014 95.55 139.856C95.3295 138.642 95.2192 137.429 95.2192 136.216V112.726L85.5419 125.877C85.3213 126.153 84.9905 126.567 84.5493 127.118C84.1082 127.669 83.4741 128.166 82.6469 128.607C81.8198 129.048 80.6619 129.268 79.173 129.268C77.6842 129.268 76.4987 129.048 75.6164 128.607C74.7893 128.166 74.1552 127.697 73.714 127.201C73.2729 126.649 72.9421 126.208 72.7215 125.877L63.1269 112.809V136.382C63.1269 137.595 63.0166 138.78 62.7961 139.938C62.5755 141.096 61.9414 142.034 60.8937 142.751C59.846 143.467 58.0539 143.826 55.5174 143.826ZM142.828 144.818C138.802 144.818 135.025 144.074 131.496 142.585C128.022 141.041 124.962 138.918 122.315 136.216C119.668 133.514 117.573 130.399 116.029 126.87C114.54 123.286 113.796 119.481 113.796 115.456C113.796 111.265 114.513 107.35 115.946 103.71C117.435 100.071 119.475 96.8729 122.067 94.1158C124.659 91.3588 127.664 89.2082 131.083 87.6643C134.557 86.1203 138.251 85.3483 142.166 85.3483C146.191 85.3483 149.941 86.1203 153.415 87.6643C156.944 89.1531 160.032 91.2485 162.679 93.9504C165.325 96.6523 167.393 99.823 168.882 103.462C170.371 107.046 171.115 110.934 171.115 115.125C171.115 119.205 170.371 123.037 168.882 126.622C167.448 130.206 165.408 133.376 162.761 136.134C160.17 138.835 157.164 140.958 153.746 142.502C150.382 144.046 146.743 144.818 142.828 144.818ZM142.414 129.682C144.289 129.682 146.053 129.324 147.708 128.607C149.362 127.835 150.796 126.815 152.009 125.546C153.277 124.223 154.242 122.679 154.904 120.915C155.621 119.095 155.979 117.165 155.979 115.125C155.979 113.084 155.621 111.182 154.904 109.418C154.187 107.653 153.194 106.109 151.926 104.786C150.713 103.407 149.279 102.359 147.625 101.643C146.026 100.871 144.317 100.485 142.497 100.485C140.622 100.485 138.858 100.871 137.203 101.643C135.604 102.359 134.171 103.407 132.902 104.786C131.689 106.109 130.724 107.653 130.007 109.418C129.291 111.182 128.932 113.084 128.932 115.125C128.932 117.11 129.291 118.985 130.007 120.749C130.724 122.514 131.689 124.085 132.902 125.464C134.171 126.787 135.604 127.835 137.203 128.607C138.858 129.324 140.594 129.682 142.414 129.682ZM183.084 143.908C180.603 143.908 178.838 143.55 177.79 142.833C176.743 142.061 176.109 141.096 175.888 139.938C175.667 138.725 175.557 137.512 175.557 136.299V93.5368C175.557 92.3237 175.667 91.1382 175.888 89.9802C176.109 88.8223 176.743 87.8848 177.79 87.168C178.838 86.396 180.63 86.01 183.167 86.01C185.703 86.01 187.468 86.396 188.46 87.168C189.508 87.8848 190.142 88.8223 190.363 89.9802C190.583 91.1382 190.693 92.3513 190.693 93.6195V105.034L205.085 88.5741C206.354 87.1956 207.539 86.2306 208.642 85.6792C209.745 85.1278 210.875 85.0175 212.033 85.3483C213.191 85.6792 214.459 86.5063 215.838 87.8297C218.099 89.8699 219.257 91.662 219.312 93.206C219.367 94.7499 218.457 96.5145 216.582 98.4996L200.371 115.042L216.665 131.336C218.705 133.376 219.643 135.224 219.477 136.878C219.367 138.477 218.181 140.214 215.921 142.089C214.266 143.412 212.86 144.239 211.702 144.57C210.544 144.901 209.469 144.763 208.477 144.157C207.484 143.605 206.381 142.613 205.168 141.179L190.693 124.719V136.382C190.693 137.595 190.583 138.78 190.363 139.938C190.142 141.096 189.508 142.061 188.46 142.833C187.413 143.55 185.62 143.908 183.084 143.908ZM232.271 143.908C229.79 143.908 228.025 143.55 226.978 142.833C225.93 142.061 225.296 141.096 225.075 139.938C224.855 138.725 224.744 137.512 224.744 136.299V93.5368C224.744 90.6695 225.296 88.712 226.399 87.6643C227.556 86.5615 229.597 86.01 232.519 86.01H262.792C264.06 86.01 265.246 86.1203 266.348 86.3409C267.506 86.5615 268.444 87.1956 269.161 88.2433C269.933 89.291 270.319 91.083 270.319 93.6195C270.319 96.1009 269.933 97.8654 269.161 98.9131C268.444 99.9608 267.506 100.595 266.348 100.815C265.19 101.036 263.977 101.146 262.709 101.146H239.881V108.508H255.182C256.451 108.508 257.581 108.618 258.574 108.839C259.566 109.004 260.366 109.528 260.972 110.41C261.579 111.292 261.882 112.836 261.882 115.042C261.882 117.137 261.579 118.654 260.972 119.591C260.366 120.473 259.538 120.997 258.491 121.163C257.443 121.328 256.285 121.411 255.017 121.411H239.881V128.772H262.792C264.06 128.772 265.246 128.882 266.348 129.103C267.506 129.324 268.444 129.958 269.161 131.005C269.933 132.053 270.319 133.845 270.319 136.382C270.319 138.863 269.933 140.628 269.161 141.675C268.444 142.723 267.506 143.357 266.348 143.578C265.19 143.798 263.977 143.908 262.709 143.908H232.271Z" fill="#FF731D"/>
</svg>
