<svg width="679" height="248" viewBox="0 0 679 248" fill="none" xmlns="http://www.w3.org/2000/svg">
<g clip-path="url(#clip0_76_20)">
<path d="M13.1104 2.24242C17.1213 -0.0839145 21.6374 -0.059947 26.0186 1.11254C32.2332 2.77546 38.1489 6.47388 43.3917 10.1223C62.5609 23.4631 78.186 42.5451 90.3819 62.3049C92.0248 64.967 93.4911 67.7356 95.0499 70.4475C112.221 64.5895 139.21 63.9363 156.242 70.4338C158.482 65.8227 161.353 61.3532 164.166 57.0715C174.081 41.984 185.716 27.8951 199.642 16.3459C201.946 14.4352 204.351 12.2034 206.949 10.7278C211.768 7.47999 218.149 3.15533 224.534 1.29808C227.487 0.43873 230.441 0.104951 233.242 0.652574C236.885 1.36494 239.922 3.32436 241.97 6.43187C249.622 18.0471 251.168 50.3924 250.476 64.3137C250.067 72.5271 248.922 80.4049 247.221 88.4446C245.601 96.0993 240.963 109.852 236.303 115.923V115.92C236.302 115.921 236.302 115.923 236.301 115.924C233.351 121.065 228.944 126.336 224.386 130.129C222.007 132.109 219.426 133.843 217.035 135.795C219.646 139.948 221.451 144.902 223.314 149.437C226.969 158.34 230.857 166.654 230.936 176.509C230.955 178.979 230.891 181.218 230.34 183.637C226.342 201.176 211.548 212.174 197.13 221.199C193.333 223.576 189.237 226.205 185.124 228.001C182.365 229.69 179.266 231.028 176.345 232.432C168.119 236.385 159.656 240.194 150.9 242.831C146.097 244.278 141.221 245.63 136.243 246.333C110.832 249.923 87.6162 239.551 65.7422 227.836C62.2201 226.4 58.6791 224.093 55.4268 222.132C42.7306 214.476 29.617 204.843 23.4532 190.873C17.6203 177.653 20.6917 166.454 25.9268 153.89C27.3265 150.53 28.7029 147.148 30.2071 143.834C31.4182 141.166 32.7745 138.535 33.8419 135.806C25.2343 129.719 18.6374 123.099 13.2754 113.976C0.290252 91.8827 -1.2193 61.4788 1.42974 36.5784C2.1514 29.798 3.07162 22.9556 4.79107 16.3469C6.14721 11.1357 8.1754 5.10505 13.1104 2.24242Z" fill="#FF731D"/>
<path d="M102.768 161.227C103.853 159.46 105.143 158.079 106.87 156.927C114.232 152.017 126.298 151.506 134.711 153.253C140.103 154.373 145.133 156.395 148.246 161.129C159.727 164.894 175.81 170.449 184.817 178.711C187.884 181.558 190.41 184.937 192.274 188.684C196.088 196.19 196.519 205.249 193.861 213.232C192.561 217.134 190.516 220.804 188.086 224.112C187.136 225.406 185.948 226.636 185.121 228.002C182.362 229.69 179.263 231.029 176.342 232.433C168.116 236.386 159.654 240.195 150.898 242.832C146.094 244.279 141.219 245.63 136.24 246.334C110.829 249.923 87.6136 239.552 65.7397 227.837C65.0387 226.894 64.2009 226.028 63.4839 225.084C60.8834 221.66 58.7667 217.922 57.354 213.852C54.64 206.035 55.0383 196.44 58.7058 189.017C60.6625 184.995 63.3678 181.383 66.6769 178.375C75.753 170.209 91.2997 165.114 102.768 161.227Z" fill="#FEE09B"/>
<path d="M102.77 161.227C103.855 159.46 105.145 158.079 106.872 156.927C114.234 152.017 126.3 151.506 134.712 153.253C140.105 154.373 145.135 156.395 148.248 161.129C149.67 164.387 149.758 167.304 148.472 170.626C145.086 179.373 137.092 183.761 129.356 188.035L129.238 194.7C134.118 198.758 140.214 201.939 146.754 201.365C149.872 201.067 152.887 200.092 155.589 198.509C156.506 197.965 157.378 197.351 158.198 196.671C160.275 194.94 163.615 191.265 166.515 193.608C167.506 194.408 168.232 195.726 168.338 196.997C168.475 198.64 167.663 200.095 166.593 201.277C162.141 206.192 153.199 210.105 146.594 210.388C140.199 210.662 132.718 208.031 128.036 203.65C127.412 203.054 126.795 202.45 126.188 201.836C120.366 207.381 113.548 210.522 105.381 210.333C98.5501 210.175 89.3509 206.536 84.6596 201.507C83.5557 200.323 82.6304 198.719 82.6733 197.049C82.7029 195.898 83.2389 194.824 84.0834 194.053C84.8958 193.31 86.0021 192.886 87.1054 192.94C89.7694 193.072 92.4544 196.6 94.6613 198.053C103.267 203.717 113.774 201.716 121.367 195.343C121.661 195.095 121.947 194.837 122.223 194.568C122.181 192.422 122.165 190.276 122.176 188.13C115.68 184.395 109.469 181.277 105.121 174.851C103.866 172.997 102.773 170.948 102.2 168.773C101.51 166.158 101.755 163.723 102.77 161.227Z" fill="#2B2827"/>
<path d="M26.7887 24.4716C28.5521 24.2271 30.2479 24.7707 31.8466 25.4704C50.5641 33.6632 65.4597 61.7126 72.5408 79.6711C63.6178 85.2447 56.6061 94.1265 50.5504 102.56C47.353 107.297 44.363 112.123 41.8676 117.27C37.1707 113.658 33.4543 109.388 30.4243 104.301C21.2028 88.8194 18.3305 69.5796 19.0465 51.8177C19.2907 45.7583 19.9291 39.5831 21.4357 33.6961C22.3317 30.194 23.5035 26.409 26.7887 24.4716Z" fill="#FE4152"/>
<path d="M222.926 24.212C223.131 24.1711 223.367 24.1119 223.579 24.1079C224.648 24.0872 225.679 24.7936 226.387 25.5369C231.364 30.7578 232.416 49.9015 232.294 57.3749C232.023 74.0428 228.178 93.3432 218.589 107.285C215.982 111.075 212.94 114.239 209.647 117.429C207.236 112.687 204.511 108.112 201.488 103.735C196.057 95.629 187.243 85.1082 178.915 79.9265C180.125 77.2316 181.165 74.4607 182.393 71.7694C188.38 58.6489 195.662 45.524 206.038 35.3339C209.373 32.0597 218.569 24.1684 222.926 24.212Z" fill="#FE4152"/>
<path d="M88.8887 120.976C90.6231 120.941 92.3216 121.474 93.725 122.493C96.251 124.294 97.7219 127.35 98.2243 130.349C98.7989 133.78 98.0523 137.543 95.9898 140.373C94.437 142.503 92.3682 143.754 89.7611 144.175C87.9474 144.147 86.2566 143.626 84.781 142.556C82.3722 140.809 80.8986 137.91 80.4065 135.021C79.8119 131.53 80.5562 127.692 82.6417 124.8C84.1984 122.641 86.2579 121.391 88.8887 120.976Z" fill="#2B2827"/>
<path d="M160.781 121.135C162.365 120.936 163.816 121.052 165.289 121.714C167.834 122.858 169.576 125.328 170.505 127.889C171.737 131.29 171.643 135.179 170.074 138.457C168.717 141.291 166.742 142.982 163.776 144.003C162.113 144.226 160.561 144.074 159.036 143.333C156.504 142.103 154.808 139.658 153.936 137.045C152.773 133.56 152.994 129.575 154.678 126.292C156.018 123.677 157.98 122.031 160.781 121.135Z" fill="#2B2827"/>
</g>
<path d="M389.221 109.045C390.749 112.099 391.563 114.695 391.665 116.833C391.767 118.971 391.105 120.854 389.68 122.483C388.254 124.112 385.964 125.741 382.808 127.37C377.921 129.711 374.154 130.424 371.508 129.508C368.861 128.693 366.366 125.792 364.025 120.803L338.065 67.6616L312.41 120.956C309.967 125.741 307.422 128.541 304.775 129.355C302.128 130.271 298.412 129.559 293.627 127.217C290.471 125.69 288.13 124.112 286.603 122.483C285.177 120.854 284.516 118.971 284.618 116.833C284.719 114.695 285.534 112.099 287.061 109.045L325.39 29.6377C326.612 27.1944 328.393 25.2601 330.735 23.8349C333.178 22.3078 335.672 21.5443 338.218 21.5443C340.05 21.5443 341.73 21.9006 343.257 22.6132C344.886 23.2241 346.362 24.1403 347.685 25.362C349.009 26.5836 350.078 28.0598 350.892 29.7904L389.221 109.045ZM313.937 106.296L325.543 82.4742H350.739L362.345 106.296H313.937ZM411.66 128.286C407.079 128.286 403.821 127.624 401.887 126.301C399.952 124.876 398.782 123.094 398.374 120.956C397.967 118.717 397.763 116.477 397.763 114.237V35.4406C397.763 33.2009 397.967 31.0121 398.374 28.8742C398.782 26.7363 399.952 25.0056 401.887 23.6822C403.821 22.2569 407.129 21.5443 411.812 21.5443H442.506C446.375 21.5443 450.549 22.3587 455.028 23.9876C459.508 25.5147 463.733 27.9071 467.703 31.1648C471.673 34.4225 474.931 38.4947 477.476 43.3813C480.021 48.2679 481.294 54.0708 481.294 60.7899C481.294 65.4728 480.581 69.8504 479.156 73.9226C477.833 77.9948 475.796 81.7106 473.048 85.0702C470.401 88.3279 467.143 91.2293 463.275 93.7744C459.508 96.2177 455.181 98.152 450.294 99.5773H425.709V114.39C425.709 116.63 425.505 118.818 425.098 120.956C424.691 123.094 423.52 124.876 421.586 126.301C419.651 127.624 416.343 128.286 411.66 128.286ZM475.644 124.621C471.063 128.082 467.449 129.457 464.802 128.744C462.155 128.133 459.304 125.792 456.25 121.72L428.152 83.5431L459.915 79.5727L478.851 105.075C480.887 108.027 482.159 110.521 482.668 112.557C483.279 114.593 483.025 116.528 481.905 118.36C480.785 120.193 478.698 122.28 475.644 124.621ZM425.709 71.7847H442.506C443.423 71.7847 444.492 71.632 445.713 71.3266C447.037 70.9194 448.258 70.3086 449.378 69.4941C450.498 68.5779 451.414 67.4071 452.127 65.9819C452.941 64.5566 453.349 62.775 453.349 60.6371C453.349 58.4993 452.84 56.6159 451.822 54.987C450.804 53.2563 449.429 51.9329 447.698 51.0166C446.07 49.9986 444.237 49.4896 442.201 49.4896H425.709V71.7847ZM540.506 129.966C536.535 129.966 532.107 129.304 527.22 127.981C522.334 126.759 517.396 124.774 512.408 122.025C507.521 119.276 502.991 115.713 498.817 111.336C494.745 106.958 491.436 101.715 488.891 95.6069C486.448 89.4987 485.226 82.4233 485.226 74.3807C485.226 66.6436 486.448 59.8227 488.891 53.9181C491.436 48.0134 494.745 42.9232 498.817 38.6474C502.889 34.3716 507.369 30.9103 512.255 28.2634C517.244 25.6165 522.232 23.6822 527.22 22.4605C532.209 21.1371 536.79 20.4753 540.964 20.4753C546.156 20.4753 550.737 21.1371 554.708 22.4605C558.678 23.6822 561.885 25.0056 564.328 26.4309C566.873 27.7544 568.451 28.6197 569.062 29.0269C571.098 30.3504 572.981 31.8265 574.712 33.4554C576.545 34.9825 577.461 37.0694 577.461 39.7164C577.461 41.0398 577.155 42.4142 576.545 43.8394C576.036 45.2647 575.221 46.7409 574.101 48.2679C572.065 51.1184 570.131 53.2054 568.298 54.5289C566.568 55.8523 564.837 56.5141 563.106 56.5141C561.783 56.5141 560.51 56.2087 559.289 55.5978C558.067 54.987 556.591 54.1217 554.86 53.0018C554.148 52.4928 553.231 51.9329 552.112 51.322C550.992 50.6094 549.465 49.9986 547.53 49.4896C545.596 48.8787 543.051 48.5733 539.895 48.5733C537.248 48.5733 534.347 49.0824 531.191 50.1004C528.137 51.0166 525.235 52.5437 522.486 54.6816C519.738 56.7177 517.498 59.4664 515.767 62.9277C514.037 66.2873 513.171 70.3595 513.171 75.1443C513.171 80.0309 514.037 84.1539 515.767 87.5135C517.6 90.873 519.89 93.6217 522.639 95.7596C525.388 97.7957 528.289 99.3228 531.343 100.341C534.499 101.257 537.35 101.715 539.895 101.715C542.542 101.715 544.782 101.512 546.614 101.104C548.447 100.595 550.075 99.9336 551.501 99.1192C553.028 98.3047 554.402 97.4903 555.624 96.6759C556.744 95.8614 557.965 95.1488 559.289 94.538C560.612 93.9272 561.936 93.6217 563.259 93.6217C564.99 93.6217 566.72 94.3344 568.451 95.7596C570.182 97.1849 572.014 99.3737 573.949 102.326C575.068 104.057 575.883 105.686 576.392 107.213C577.003 108.638 577.308 109.961 577.308 111.183C577.308 113.728 576.392 115.764 574.559 117.291C572.829 118.818 570.945 120.193 568.909 121.414C568.197 121.822 566.67 122.738 564.328 124.163C561.987 125.588 558.831 126.912 554.86 128.133C550.89 129.355 546.105 129.966 540.506 129.966ZM660.359 128.286C655.778 128.286 652.52 127.624 650.586 126.301C648.651 124.876 647.481 123.094 647.073 120.956C646.666 118.717 646.463 116.477 646.463 114.237V35.4406C646.463 33.2009 646.666 31.0121 647.073 28.8742C647.481 26.7363 648.651 25.0056 650.586 23.6822C652.52 22.2569 655.829 21.5443 660.512 21.5443C665.195 21.5443 668.452 22.2569 670.285 23.6822C672.219 25.0056 673.39 26.7363 673.797 28.8742C674.204 31.0121 674.408 33.2518 674.408 35.5933V114.39C674.408 116.63 674.204 118.818 673.797 120.956C673.39 123.094 672.219 124.876 670.285 126.301C668.351 127.624 665.042 128.286 660.359 128.286ZM597.597 128.286C593.015 128.286 589.758 127.624 587.823 126.301C585.889 124.876 584.718 123.094 584.311 120.956C583.904 118.717 583.7 116.477 583.7 114.237V35.4406C583.7 33.2009 583.904 31.0121 584.311 28.8742C584.718 26.7363 585.889 25.0056 587.823 23.6822C589.758 22.2569 593.066 21.5443 597.749 21.5443C602.432 21.5443 605.69 22.2569 607.522 23.6822C609.457 25.0056 610.628 26.7363 611.035 28.8742C611.442 31.0121 611.646 33.2518 611.646 35.5933V114.39C611.646 116.63 611.442 118.818 611.035 120.956C610.628 123.094 609.457 124.876 607.522 126.301C605.588 127.624 602.28 128.286 597.597 128.286ZM609.202 86.9027V63.0804H648.906V86.9027H609.202Z" fill="#FF731D"/>
<path d="M316.54 229.741C311.635 229.741 307.454 229.138 303.996 227.932C300.619 226.726 297.845 225.318 295.674 223.71C293.503 222.022 291.855 220.494 290.729 219.127C289.603 217.76 288.92 216.916 288.679 216.594C287.07 214.584 286.065 212.775 285.663 211.167C285.342 209.558 285.583 207.95 286.387 206.342C287.271 204.734 288.719 202.965 290.729 201.035C292.578 199.266 294.387 198.301 296.156 198.14C297.925 197.899 299.654 198.261 301.343 199.226C303.112 200.191 304.8 201.598 306.409 203.447C308.338 205.618 309.987 207.106 311.354 207.91C312.721 208.634 314.289 208.996 316.058 208.996C318.229 208.996 319.998 208.754 321.365 208.272C322.731 207.709 323.737 206.905 324.38 205.86C325.023 204.734 325.345 203.327 325.345 201.638C325.345 200.271 324.661 199.226 323.294 198.502C321.927 197.698 320.118 197.015 317.867 196.452C315.696 195.889 313.243 195.286 310.509 194.643C307.775 193.919 305.082 192.994 302.428 191.869C300.82 191.225 299.252 190.421 297.724 189.456C296.197 188.491 294.749 187.406 293.382 186.2C292.096 184.913 290.97 183.426 290.005 181.737C289.04 179.968 288.276 177.998 287.714 175.827C287.231 173.656 286.99 171.204 286.99 168.47C286.99 163.565 288.196 159.183 290.608 155.323C293.101 151.463 296.478 148.408 300.74 146.156C305.082 143.905 309.987 142.779 315.454 142.779C319.394 142.779 322.772 143.101 325.586 143.744C328.4 144.387 330.692 145.151 332.461 146.036C334.31 146.92 335.717 147.765 336.682 148.569C337.647 149.292 338.25 149.775 338.491 150.016C341.145 152.428 342.592 154.519 342.834 156.288C343.075 157.976 342.11 160.429 339.939 163.645C337.527 167.103 335.155 169.073 332.823 169.555C330.491 169.957 327.797 169.193 324.742 167.264C324.098 166.781 323.455 166.258 322.812 165.696C322.169 165.052 321.284 164.53 320.158 164.128C319.113 163.645 317.505 163.404 315.334 163.404C314.53 163.404 313.726 163.565 312.922 163.886C312.118 164.128 311.434 164.489 310.871 164.972C310.308 165.374 309.826 165.897 309.424 166.54C309.102 167.183 308.941 167.867 308.941 168.59C308.941 170.279 309.585 171.606 310.871 172.571C312.158 173.455 313.846 174.138 315.937 174.621C318.108 175.103 320.48 175.586 323.053 176.068C325.626 176.551 328.239 177.194 330.893 177.998C333.064 178.722 335.155 179.646 337.165 180.772C339.175 181.898 340.944 183.345 342.472 185.114C343.999 186.883 345.206 189.094 346.09 191.748C347.055 194.321 347.537 197.497 347.537 201.276C347.537 206.503 346.532 210.966 344.522 214.664C342.512 218.283 339.899 221.218 336.682 223.469C333.546 225.64 330.169 227.208 326.551 228.173C323.013 229.218 319.676 229.741 316.54 229.741ZM363.457 228.414C359.919 228.414 357.386 227.891 355.859 226.846C354.331 225.801 353.406 224.434 353.085 222.745C352.763 221.057 352.602 219.248 352.602 217.318V155.082C352.602 153.313 352.763 151.624 353.085 150.016C353.406 148.327 354.331 146.96 355.859 145.915C357.386 144.789 360 144.227 363.699 144.227C366.191 144.227 368 144.387 369.126 144.709C370.332 145.031 371.177 145.433 371.659 145.915C372.222 146.398 372.785 146.96 373.348 147.604L398.314 179.687H397.591L422.437 147.724C423.241 146.84 423.965 146.156 424.608 145.674C425.332 145.191 426.256 144.83 427.382 144.588C428.588 144.347 430.277 144.227 432.448 144.227C436.066 144.227 438.639 144.789 440.167 145.915C441.695 146.96 442.619 148.327 442.941 150.016C443.263 151.705 443.423 153.474 443.423 155.323V217.559C443.423 219.328 443.263 221.057 442.941 222.745C442.619 224.434 441.695 225.801 440.167 226.846C438.639 227.891 436.026 228.414 432.327 228.414C428.709 228.414 426.136 227.891 424.608 226.846C423.08 225.72 422.155 224.313 421.834 222.625C421.512 220.856 421.351 219.087 421.351 217.318V183.064L407.24 202.241C406.918 202.643 406.436 203.246 405.792 204.05C405.149 204.854 404.224 205.578 403.018 206.221C401.812 206.865 400.124 207.186 397.953 207.186C395.781 207.186 394.053 206.865 392.766 206.221C391.56 205.578 390.635 204.895 389.992 204.171C389.349 203.367 388.866 202.724 388.545 202.241L374.554 183.184V217.559C374.554 219.328 374.393 221.057 374.071 222.745C373.75 224.434 372.825 225.801 371.297 226.846C369.769 227.891 367.156 228.414 363.457 228.414ZM490.775 229.861C484.905 229.861 479.397 228.776 474.251 226.605C469.186 224.353 464.723 221.258 460.863 217.318C457.004 213.378 453.948 208.835 451.697 203.689C449.526 198.462 448.44 192.914 448.44 187.044C448.44 180.933 449.485 175.224 451.576 169.917C453.747 164.61 456.722 159.946 460.501 155.926C464.281 151.906 468.663 148.77 473.648 146.518C478.714 144.267 484.101 143.141 489.81 143.141C495.68 143.141 501.148 144.267 506.214 146.518C511.36 148.689 515.863 151.745 519.722 155.685C523.582 159.625 526.597 164.248 528.768 169.555C530.939 174.782 532.025 180.451 532.025 186.562C532.025 192.512 530.939 198.1 528.768 203.327C526.677 208.553 523.702 213.177 519.843 217.197C516.064 221.137 511.681 224.233 506.696 226.484C501.791 228.736 496.484 229.861 490.775 229.861ZM490.172 207.789C492.906 207.789 495.479 207.267 497.891 206.221C500.304 205.096 502.394 203.608 504.163 201.759C506.013 199.829 507.42 197.578 508.385 195.004C509.43 192.351 509.953 189.537 509.953 186.562C509.953 183.586 509.43 180.812 508.385 178.239C507.339 175.666 505.892 173.415 504.043 171.485C502.274 169.475 500.183 167.947 497.771 166.902C495.439 165.776 492.946 165.213 490.293 165.213C487.559 165.213 484.986 165.776 482.574 166.902C480.242 167.947 478.151 169.475 476.302 171.485C474.533 173.415 473.126 175.666 472.08 178.239C471.035 180.812 470.512 183.586 470.512 186.562C470.512 189.456 471.035 192.19 472.08 194.763C473.126 197.336 474.533 199.628 476.302 201.638C478.151 203.568 480.242 205.096 482.574 206.221C484.986 207.267 487.519 207.789 490.172 207.789ZM549.478 228.535C545.859 228.535 543.286 228.012 541.758 226.967C540.231 225.841 539.306 224.434 538.984 222.745C538.663 220.976 538.502 219.207 538.502 217.438V155.082C538.502 153.313 538.663 151.584 538.984 149.895C539.306 148.207 540.231 146.84 541.758 145.795C543.286 144.669 545.899 144.106 549.598 144.106C553.297 144.106 555.87 144.669 557.317 145.795C558.845 146.84 559.77 148.207 560.092 149.895C560.413 151.584 560.574 153.353 560.574 155.202V171.847L581.561 147.845C583.41 145.835 585.139 144.428 586.747 143.624C588.355 142.819 590.003 142.659 591.692 143.141C593.381 143.624 595.23 144.83 597.24 146.759C600.537 149.735 602.226 152.348 602.306 154.599C602.386 156.851 601.06 159.424 598.326 162.318L574.686 186.441L598.446 210.202C601.421 213.177 602.788 215.87 602.547 218.283C602.386 220.615 600.658 223.147 597.361 225.881C594.949 227.811 592.898 229.017 591.21 229.5C589.521 229.982 587.953 229.781 586.506 228.897C585.058 228.092 583.45 226.645 581.681 224.555L560.574 200.553V217.559C560.574 219.328 560.413 221.057 560.092 222.745C559.77 224.434 558.845 225.841 557.317 226.967C555.79 228.012 553.176 228.535 549.478 228.535ZM621.203 228.535C617.585 228.535 615.012 228.012 613.484 226.967C611.957 225.841 611.032 224.434 610.71 222.745C610.389 220.976 610.228 219.207 610.228 217.438V155.082C610.228 150.9 611.032 148.046 612.64 146.518C614.329 144.91 617.304 144.106 621.565 144.106H665.71C667.559 144.106 669.288 144.267 670.896 144.588C672.584 144.91 673.951 145.835 674.997 147.362C676.122 148.89 676.685 151.504 676.685 155.202C676.685 158.821 676.122 161.394 674.997 162.922C673.951 164.449 672.584 165.374 670.896 165.696C669.207 166.017 667.438 166.178 665.589 166.178H632.3V176.913H654.613C656.463 176.913 658.111 177.073 659.558 177.395C661.006 177.636 662.172 178.4 663.056 179.687C663.941 180.973 664.383 183.225 664.383 186.441C664.383 189.496 663.941 191.708 663.056 193.075C662.172 194.361 660.965 195.125 659.438 195.366C657.91 195.608 656.221 195.728 654.372 195.728H632.3V206.463H665.71C667.559 206.463 669.288 206.623 670.896 206.945C672.584 207.267 673.951 208.191 674.997 209.719C676.122 211.247 676.685 213.86 676.685 217.559C676.685 221.177 676.122 223.75 674.997 225.278C673.951 226.806 672.584 227.731 670.896 228.052C669.207 228.374 667.438 228.535 665.589 228.535H621.203Z" fill="#FF731D"/>
<defs>
<clipPath id="clip0_76_20">
<rect width="250.533" height="246.873" fill="white" transform="translate(0.320801 0.320312)"/>
</clipPath>
</defs>
</svg>
