<svg width="272" height="270" viewBox="0 0 272 270" fill="none" xmlns="http://www.w3.org/2000/svg">
<path d="M13.1718 2.55576C17.5491 0.0169065 22.4773 0.0428498 27.2587 1.32237C34.0414 3.13723 40.4986 7.17342 46.2207 11.1554C67.1419 25.7154 84.1943 46.5418 97.5048 68.1075C99.2979 71.0128 100.898 74.0345 102.6 76.9942C121.34 70.6008 150.795 69.8874 169.384 76.9786C171.828 71.9462 174.962 67.0685 178.032 62.3956C188.853 45.9292 201.552 30.552 216.75 17.9474C219.265 15.862 221.89 13.426 224.726 11.8155C232.416 6.63203 243.753 -1.06712 253.418 0.822366C257.394 1.59979 260.71 3.73725 262.944 7.12901C262.981 7.185 263.016 7.24303 263.053 7.2999C263.38 7.80771 263.697 8.34991 264.004 8.9249C264.33 9.53645 264.644 10.1849 264.947 10.8663C265.515 12.1393 266.043 13.5285 266.535 15.0138C266.753 15.673 266.965 16.3508 267.169 17.046C267.846 19.3526 268.447 21.8468 268.976 24.464C269.179 25.4709 269.372 26.4958 269.555 27.5353C272.192 42.5474 272.713 60.5598 272.228 70.3028C271.783 79.2666 270.531 87.8636 268.675 96.6378C266.907 104.992 261.846 120.002 256.76 126.628V126.626C253.541 132.237 248.731 137.99 243.756 142.13C241.159 144.29 238.343 146.183 235.733 148.315C238.583 152.847 240.553 158.253 242.585 163.202C246.575 172.92 250.819 181.992 250.905 192.748C250.927 195.444 250.856 197.887 250.254 200.527C245.89 219.67 229.744 231.673 214.009 241.523C209.864 244.117 205.394 246.986 200.905 248.946C197.894 250.789 194.512 252.25 191.324 253.782C182.347 258.097 173.111 262.254 163.555 265.132C158.312 266.711 152.991 268.187 147.558 268.954C119.824 272.872 94.4862 261.553 70.6132 248.767C66.7693 247.199 62.9048 244.681 59.3554 242.541C45.4989 234.186 31.187 223.673 24.4599 208.426C18.0937 193.997 21.4464 181.774 27.1601 168.062C28.6877 164.395 30.1894 160.704 31.831 157.087C33.1527 154.175 34.6329 151.304 35.7978 148.326C26.4036 141.683 19.2045 134.458 13.3525 124.501C-0.81974 100.389 -2.46738 67.2057 0.423782 40.0294C1.21138 32.6295 2.21518 25.1619 4.09175 17.9493C5.57181 12.2618 7.7858 5.6801 13.1718 2.55576Z" fill="#FF731D"/>
<path d="M111.027 176.061C112.211 174.132 113.619 172.625 115.503 171.368C123.538 166.009 136.707 165.451 145.888 167.358C151.774 168.58 157.263 170.787 160.661 175.954C173.191 180.063 190.744 186.125 200.574 195.143C203.921 198.25 206.678 201.938 208.713 206.027C212.875 214.219 213.345 224.106 210.444 232.819C209.026 237.078 206.794 241.083 204.142 244.693C203.105 246.106 201.809 247.447 200.906 248.938C197.895 250.781 194.513 252.242 191.325 253.774C182.347 258.089 173.112 262.246 163.555 265.124C158.312 266.703 152.991 268.178 147.558 268.945C119.824 272.863 94.4873 261.544 70.6143 248.759C69.8492 247.729 68.9348 246.785 68.1523 245.754C65.3142 242.017 63.004 237.938 61.4622 233.496C58.5002 224.964 58.9348 214.492 62.9375 206.391C65.073 202.001 68.0256 198.059 71.6372 194.776C81.5427 185.864 98.5103 180.303 111.027 176.061Z" fill="#FEE09B"/>
<path d="M111.027 176.061C112.211 174.132 113.619 172.625 115.503 171.368C123.538 166.009 136.707 165.451 145.889 167.358C151.775 168.58 157.263 170.787 160.661 175.954C162.214 179.51 162.31 182.693 160.906 186.319C157.21 195.865 148.486 200.654 140.043 205.318L139.914 212.593C145.24 217.021 151.894 220.494 159.03 219.867C162.434 219.542 165.725 218.478 168.674 216.75C169.674 216.157 170.626 215.486 171.521 214.744C173.788 212.855 177.433 208.844 180.598 211.401C181.679 212.275 182.472 213.713 182.587 215.1C182.737 216.893 181.851 218.481 180.683 219.771C175.824 225.135 166.065 229.406 158.856 229.715C151.877 230.014 143.713 227.142 138.603 222.361C137.921 221.711 137.248 221.051 136.585 220.381C130.232 226.432 122.791 229.861 113.876 229.655C106.421 229.482 96.3816 225.51 91.2616 220.022C90.0567 218.73 89.0469 216.979 89.0937 215.157C89.126 213.9 89.711 212.729 90.6326 211.887C91.5194 211.076 92.7268 210.613 93.9309 210.673C96.8384 210.816 99.7688 214.667 102.177 216.252C111.57 222.434 123.036 220.25 131.323 213.294C131.645 213.024 131.956 212.742 132.258 212.449C132.212 210.107 132.195 207.765 132.207 205.422C125.117 201.347 118.339 197.943 113.593 190.93C112.223 188.907 111.03 186.671 110.405 184.297C109.652 181.443 109.92 178.785 111.027 176.061Z" fill="#2B2827"/>
<path d="M28.1029 26.811C30.0274 26.5442 31.8782 27.1375 33.623 27.9011C54.0511 36.8426 70.308 67.4555 78.0363 87.0553C68.2978 93.1383 60.6454 102.832 54.0362 112.036C50.5466 117.206 47.2833 122.473 44.5599 128.091C39.4337 124.148 35.3776 119.488 32.0707 113.936C22.0064 97.0397 18.8716 76.0415 19.6531 56.6563C19.9196 50.0431 20.6164 43.3036 22.2606 36.8786C23.2385 33.0564 24.5174 28.9255 28.1029 26.811Z" fill="#FE4152"/>
<path d="M242.161 26.5262C242.385 26.4816 242.643 26.4169 242.874 26.4126C244.04 26.3901 245.166 27.161 245.939 27.9722C251.37 33.6703 252.518 54.5635 252.386 62.7199C252.089 80.9112 247.893 101.975 237.427 117.191C234.583 121.328 231.263 124.781 227.668 128.263C225.038 123.087 222.063 118.094 218.764 113.317C212.837 104.47 203.217 92.9878 194.127 87.3326C195.449 84.3913 196.583 81.3673 197.923 78.43C204.457 64.1103 212.405 49.7859 223.73 38.6646C227.369 35.0912 237.406 26.4787 242.161 26.5262Z" fill="#FE4152"/>
<path d="M95.8777 132.135C97.7706 132.096 99.6243 132.677 101.156 133.79C103.913 135.756 105.518 139.091 106.066 142.364C106.694 146.108 105.879 150.215 103.628 153.304C101.933 155.629 99.6752 156.994 96.8298 157.454C94.8504 157.423 93.005 156.854 91.3946 155.687C88.7656 153.78 87.1573 150.616 86.6203 147.463C85.9714 143.653 86.7837 139.464 89.0597 136.308C90.7588 133.952 93.0065 132.588 95.8777 132.135Z" fill="#2B2827"/>
<path d="M174.342 132.307C176.07 132.09 177.653 132.217 179.261 132.939C182.039 134.188 183.94 136.883 184.954 139.678C186.299 143.39 186.196 147.634 184.483 151.212C183.002 154.305 180.847 156.151 177.61 157.265C175.796 157.509 174.101 157.343 172.437 156.534C169.674 155.192 167.823 152.523 166.871 149.671C165.602 145.867 165.843 141.519 167.68 137.935C169.143 135.082 171.284 133.284 174.342 132.307Z" fill="#2B2827"/>
</svg>
