<svg width="704" height="200" viewBox="0 0 704 200" fill="none" xmlns="http://www.w3.org/2000/svg">
<g clip-path="url(#clip0_94_21)">
<path d="M10.3228 1.55779C13.5606 -0.320123 17.2059 -0.300812 20.7427 0.645676C25.7597 1.98809 30.5356 4.97374 34.7681 7.91911C50.243 18.6888 62.8562 34.0935 72.7017 50.0451C74.0279 52.194 75.212 54.4291 76.4702 56.6183C90.3323 51.8892 112.12 51.3623 125.87 56.6076C127.678 52.8852 129.996 49.277 132.267 45.8205C140.271 33.6406 149.664 22.2669 160.906 12.9435C162.766 11.401 164.708 9.59861 166.805 8.4074C172.133 4.81646 179.826 -0.407012 186.654 0.0929419C186.671 0.0942048 186.688 0.095512 186.706 0.0968481C187.15 0.131328 187.591 0.190242 188.028 0.275559C190.507 0.760295 192.636 1.96261 194.235 3.83025C194.43 4.05811 194.619 4.2945 194.797 4.54216C194.892 4.67264 194.985 4.80466 195.075 4.9406C195.178 5.09718 195.279 5.2592 195.379 5.42497C195.543 5.69441 195.702 5.97603 195.858 6.26872C196.036 6.60239 196.21 6.95054 196.378 7.31267C196.619 7.82873 196.849 8.3733 197.072 8.94255C197.166 9.18313 197.26 9.42754 197.351 9.67693C198.094 11.7127 198.732 14.0353 199.277 16.5334C199.309 16.681 199.342 16.8289 199.374 16.9777C201.837 28.5876 202.334 43.7869 201.942 51.6691C201.612 58.2995 200.686 64.6584 199.313 71.1486C198.006 77.328 194.262 88.4298 190.501 93.3312C190.501 93.33 190.5 93.3286 190.501 93.3273L190.5 93.3302C188.118 97.4805 184.561 101.736 180.881 104.798C178.961 106.396 176.877 107.797 174.947 109.373C177.054 112.726 178.512 116.724 180.015 120.385C182.966 127.573 186.106 134.284 186.169 142.239C186.185 144.233 186.133 146.041 185.688 147.994C182.46 162.153 170.518 171.032 158.878 178.318C155.813 180.236 152.506 182.359 149.186 183.809C146.959 185.172 144.456 186.253 142.098 187.386C135.458 190.577 128.627 193.652 121.558 195.78C117.68 196.949 113.744 198.04 109.725 198.608C89.2108 201.505 70.4695 193.133 52.8111 183.676C49.9677 182.516 47.1094 180.654 44.4839 179.07C34.2345 172.89 23.6483 165.114 18.6724 153.836C13.9635 143.163 16.4432 134.122 20.6695 123.98C21.7994 121.268 22.9103 118.537 24.1245 115.862C25.1022 113.708 26.1975 111.584 27.0591 109.381C20.1105 104.467 14.7852 99.1235 10.4566 91.759C-0.0263543 73.9236 -1.24544 49.3783 0.8931 29.2765C1.47567 23.803 2.21796 18.2794 3.60599 12.9445C4.70078 8.73753 6.33874 3.86876 10.3228 1.55779Z" fill="#FF731D"/>
<path d="M82.7039 129.897C83.5798 128.47 84.6209 127.355 86.0149 126.426C91.958 122.461 101.699 122.049 108.49 123.459C112.844 124.364 116.904 125.996 119.417 129.818C128.686 132.857 141.669 137.341 148.94 144.011C151.416 146.31 153.455 149.037 154.96 152.062C158.039 158.121 158.387 165.435 156.241 171.879C155.192 175.03 153.541 177.992 151.579 180.663C150.812 181.707 149.853 182.7 149.186 183.803C146.959 185.166 144.457 186.247 142.098 187.38C135.458 190.571 128.627 193.646 121.558 195.775C117.68 196.943 113.744 198.034 109.725 198.602C89.2108 201.499 70.4697 193.127 52.8113 183.67C52.2454 182.908 51.5691 182.21 50.9903 181.447C48.891 178.683 47.1822 175.666 46.0417 172.38C43.8508 166.07 44.1723 158.323 47.133 152.331C48.7126 149.084 50.8965 146.169 53.568 143.74C60.8949 137.148 73.4455 133.034 82.7039 129.897Z" fill="#FEE09B"/>
<path d="M82.704 129.897C83.5799 128.47 84.621 127.355 86.015 126.426C91.9581 122.461 101.699 122.049 108.49 123.459C112.844 124.364 116.904 125.996 119.417 129.818C120.566 132.448 120.637 134.802 119.598 137.484C116.865 144.545 110.411 148.088 104.167 151.538L104.071 156.919C108.011 160.194 112.932 162.763 118.211 162.299C120.728 162.059 123.163 161.272 125.344 159.994C126.084 159.555 126.788 159.059 127.45 158.51C129.127 157.113 131.823 154.145 134.164 156.037C134.964 156.683 135.55 157.747 135.635 158.773C135.746 160.1 135.091 161.274 134.227 162.228C130.633 166.196 123.414 169.355 118.082 169.584C112.92 169.805 106.881 167.68 103.101 164.144C102.597 163.663 102.099 163.175 101.608 162.68C96.9091 167.156 91.4051 169.692 84.8114 169.539C79.2972 169.411 71.8708 166.474 68.0837 162.414C67.1925 161.458 66.4455 160.163 66.4802 158.815C66.5041 157.886 66.9368 157.019 67.6185 156.396C68.2744 155.797 69.1674 155.454 70.0581 155.498C72.2087 155.605 74.3763 158.453 76.1579 159.625C83.1053 164.198 91.5869 162.583 97.7165 157.438C97.9542 157.238 98.1849 157.029 98.4081 156.813C98.374 155.08 98.3611 153.347 98.37 151.615C93.126 148.6 88.1121 146.083 84.6019 140.895C83.5888 139.399 82.7062 137.745 82.2434 135.989C81.6868 133.877 81.8848 131.912 82.704 129.897Z" fill="#2B2827"/>
<path d="M21.3668 19.4992C22.7903 19.3018 24.1594 19.7407 25.45 20.3055C40.5602 26.9194 52.5851 49.5631 58.3016 64.0607C51.0982 68.5602 45.4379 75.7303 40.5492 82.5384C37.968 86.3623 35.5542 90.2585 33.5397 94.4139C29.748 91.4978 26.7478 88.0507 24.3017 83.9436C16.8574 71.446 14.5386 55.914 15.1166 41.5752C15.3138 36.6836 15.8292 31.6985 17.0454 26.946C17.7687 24.1188 18.7147 21.0632 21.3668 19.4992Z" fill="#FE4152"/>
<path d="M179.701 19.2895C179.867 19.2565 180.057 19.2087 180.228 19.2054C181.091 19.1888 181.924 19.759 182.495 20.359C186.513 24.5738 187.362 40.0281 187.264 46.0613C187.045 59.517 183.941 75.0978 176.2 86.3527C174.095 89.4123 171.64 91.9666 168.981 94.5421C167.035 90.7138 164.835 87.0204 162.395 83.4868C158.01 76.9431 150.895 68.4499 144.171 64.2668C145.149 62.0912 145.988 59.8544 146.979 57.6817C151.812 47.0897 157.691 36.4943 166.068 28.268C168.76 25.6248 176.184 19.2543 179.701 19.2895Z" fill="#FE4152"/>
<path d="M71.4981 97.4056C72.8983 97.3772 74.2694 97.8072 75.4024 98.6304C77.4415 100.084 78.629 102.551 79.0345 104.972C79.4984 107.742 78.8957 110.779 77.2307 113.064C75.9771 114.784 74.307 115.794 72.2023 116.134C70.7382 116.111 69.3732 115.69 68.182 114.827C66.2374 113.416 65.0478 111.076 64.6506 108.744C64.1706 105.926 64.7714 102.827 66.455 100.493C67.7117 98.7497 69.3743 97.7408 71.4981 97.4056Z" fill="#2B2827"/>
<path d="M129.537 97.5317C130.815 97.3716 131.986 97.4651 133.176 97.9993C135.23 98.923 136.637 100.917 137.386 102.984C138.381 105.73 138.305 108.869 137.038 111.515C135.943 113.803 134.349 115.169 131.954 115.993C130.612 116.173 129.359 116.05 128.128 115.452C126.084 114.459 124.715 112.485 124.011 110.376C123.072 107.562 123.25 104.346 124.609 101.695C125.691 99.5843 127.275 98.255 129.537 97.5317Z" fill="#2B2827"/>
</g>
<path d="M355.505 142.033C357.337 145.697 358.314 148.811 358.436 151.375C358.558 153.94 357.764 156.199 356.055 158.153C354.345 160.107 351.597 162.061 347.811 164.015C341.95 166.824 337.431 167.678 334.256 166.579C331.081 165.602 328.089 162.122 325.28 156.138L294.139 92.3912L263.365 156.321C260.434 162.061 257.381 165.419 254.206 166.396C251.031 167.495 246.574 166.64 240.834 163.832C237.048 162 234.239 160.107 232.408 158.153C230.698 156.199 229.904 153.94 230.026 151.375C230.148 148.811 231.125 145.697 232.957 142.033L278.935 46.7792C280.401 43.8483 282.538 41.528 285.347 39.8183C288.278 37.9865 291.27 37.0706 294.323 37.0706C296.521 37.0706 298.536 37.498 300.368 38.3529C302.322 39.0856 304.092 40.1847 305.68 41.6501C307.267 43.1156 308.55 44.8863 309.527 46.9624L355.505 142.033ZM265.197 138.736L279.119 110.16H309.343L323.265 138.736H265.197ZM382.421 165.114C376.926 165.114 373.018 164.32 370.698 162.733C368.377 161.023 366.973 158.886 366.484 156.321C365.996 153.635 365.752 150.948 365.752 148.261V53.74C365.752 51.0534 365.996 48.4278 366.484 45.8633C366.973 43.2987 368.377 41.2227 370.698 39.6351C373.018 37.9254 376.987 37.0706 382.604 37.0706H419.424C424.064 37.0706 429.071 38.0476 434.444 40.0015C439.818 41.8333 444.886 44.7031 449.648 48.611C454.411 52.5188 458.319 57.4036 461.372 63.2654C464.425 69.1272 465.952 76.0881 465.952 84.148C465.952 89.7656 465.097 95.0167 463.387 99.9016C461.799 104.786 459.357 109.244 456.06 113.274C452.885 117.182 448.977 120.662 444.336 123.715C439.818 126.646 434.628 128.966 428.766 130.676H399.274V148.444C399.274 151.131 399.03 153.757 398.541 156.321C398.053 158.886 396.648 161.023 394.328 162.733C392.008 164.32 388.039 165.114 382.421 165.114ZM459.174 160.718C453.678 164.87 449.343 166.518 446.168 165.663C442.993 164.931 439.573 162.122 435.91 157.237L402.205 111.442L440.306 106.679L463.021 137.27C465.463 140.812 466.99 143.804 467.6 146.246C468.333 148.689 468.028 151.009 466.684 153.207C465.341 155.405 462.837 157.909 459.174 160.718ZM399.274 97.337H419.424C420.523 97.337 421.805 97.1539 423.27 96.7875C424.858 96.299 426.323 95.5663 427.667 94.5893C429.01 93.4902 430.109 92.0859 430.964 90.3762C431.941 88.6665 432.429 86.5294 432.429 83.9648C432.429 81.4003 431.819 79.1411 430.598 77.1872C429.376 75.1111 427.728 73.5235 425.652 72.4245C423.698 71.2033 421.5 70.5927 419.057 70.5927H399.274V97.337ZM536.98 167.129C532.217 167.129 526.905 166.335 521.043 164.748C515.181 163.282 509.258 160.901 503.275 157.603C497.413 154.306 491.978 150.032 486.971 144.781C482.087 139.53 478.118 133.24 475.065 125.913C472.134 118.586 470.668 110.099 470.668 100.451C470.668 91.1699 472.134 82.9879 475.065 75.9049C478.118 68.8219 482.087 62.7159 486.971 57.5868C491.856 52.4578 497.23 48.3057 503.091 45.1305C509.075 41.9554 515.059 39.6351 521.043 38.1697C527.027 36.5821 532.522 35.7883 537.529 35.7883C543.757 35.7883 549.253 36.5821 554.016 38.1697C558.778 39.6351 562.625 41.2227 565.556 42.9324C568.609 44.5199 570.502 45.558 571.235 46.0464C573.677 47.634 575.936 49.4048 578.012 51.3587C580.21 53.1905 581.31 55.694 581.31 58.8691C581.31 60.4567 580.943 62.1053 580.21 63.815C579.6 65.5247 578.623 67.2954 577.28 69.1272C574.837 72.5466 572.517 75.0501 570.319 76.6376C568.243 78.2252 566.167 79.019 564.091 79.019C562.503 79.019 560.976 78.6526 559.511 77.9199C558.046 77.1872 556.275 76.1491 554.199 74.8058C553.344 74.1952 552.245 73.5235 550.902 72.7908C549.558 71.936 547.726 71.2033 545.406 70.5927C543.086 69.8599 540.033 69.4936 536.247 69.4936C533.072 69.4936 529.592 70.1042 525.806 71.3254C522.142 72.4245 518.662 74.2563 515.364 76.8208C512.067 79.2632 509.381 82.5605 507.305 86.7126C505.228 90.7425 504.19 95.6273 504.19 101.367C504.19 107.229 505.228 112.175 507.305 116.205C509.503 120.235 512.25 123.532 515.548 126.096C518.845 128.539 522.325 130.371 525.989 131.592C529.775 132.691 533.194 133.24 536.247 133.24C539.422 133.24 542.109 132.996 544.307 132.508C546.505 131.897 548.459 131.103 550.169 130.126C552.001 129.149 553.649 128.172 555.115 127.195C556.458 126.219 557.923 125.364 559.511 124.631C561.099 123.898 562.686 123.532 564.274 123.532C566.35 123.532 568.426 124.387 570.502 126.096C572.578 127.806 574.776 130.432 577.096 133.973C578.44 136.049 579.417 138.003 580.027 139.835C580.76 141.545 581.126 143.132 581.126 144.598C581.126 147.651 580.027 150.093 577.829 151.925C575.753 153.757 573.494 155.405 571.051 156.871C570.197 157.359 568.365 158.458 565.556 160.168C562.747 161.878 558.961 163.465 554.199 164.931C549.436 166.396 543.696 167.129 536.98 167.129ZM680.751 165.114C675.255 165.114 671.348 164.32 669.027 162.733C666.707 161.023 665.303 158.886 664.814 156.321C664.326 153.635 664.081 150.948 664.081 148.261V53.74C664.081 51.0534 664.326 48.4278 664.814 45.8633C665.303 43.2987 666.707 41.2227 669.027 39.6351C671.348 37.9254 675.317 37.0706 680.934 37.0706C686.552 37.0706 690.459 37.9254 692.658 39.6351C694.978 41.2227 696.382 43.2987 696.871 45.8633C697.359 48.4278 697.604 51.1144 697.604 53.9232V148.444C697.604 151.131 697.359 153.757 696.871 156.321C696.382 158.886 694.978 161.023 692.658 162.733C690.337 164.32 686.368 165.114 680.751 165.114ZM605.464 165.114C599.968 165.114 596.06 164.32 593.74 162.733C591.42 161.023 590.015 158.886 589.527 156.321C589.038 153.635 588.794 150.948 588.794 148.261V53.74C588.794 51.0534 589.038 48.4278 589.527 45.8633C590.015 43.2987 591.42 41.2227 593.74 39.6351C596.06 37.9254 600.029 37.0706 605.647 37.0706C611.264 37.0706 615.172 37.9254 617.37 39.6351C619.691 41.2227 621.095 43.2987 621.584 45.8633C622.072 48.4278 622.316 51.1144 622.316 53.9232V148.444C622.316 151.131 622.072 153.757 621.584 156.321C621.095 158.886 619.691 161.023 617.37 162.733C615.05 164.32 611.081 165.114 605.464 165.114ZM619.385 115.472V86.8957H667.012V115.472H619.385Z" fill="#FF731D"/>
<defs>
<clipPath id="clip0_94_21">
<rect width="202.251" height="199.296" fill="white"/>
</clipPath>
</defs>
</svg>
